<svg xmlns="http://www.w3.org/2000/svg" viewBox="0 0 360 150" role="img" aria-label="GO CAR — Achat & Vente de Voitures d'Occasion">
  <defs>
    <linearGradient id="or" x1="0" y1="0" x2="0" y2="1">
      <stop offset="0" stop-color="#f2ca6b"/>
      <stop offset="0.5" stop-color="#d9a441"/>
      <stop offset="1" stop-color="#9a6f24"/>
    </linearGradient>
  </defs>
  <!-- silhouette voiture (trait doré) -->
  <g fill="none" stroke="url(#or)" stroke-width="4.5" stroke-linecap="round" stroke-linejoin="round">
    <path d="M20 74 Q26 74 30 66 Q40 50 78 47 L150 44 Q182 42 214 52 L250 63 L318 66 Q340 67 340 78"/>
    <path d="M78 47 L96 63 M150 44 L150 62 M214 52 L206 64"/>
    <path d="M40 78 L120 78 M170 78 L300 78"/>
    <circle cx="145" cy="78" r="17"/>
    <circle cx="145" cy="78" r="6"/>
    <circle cx="315" cy="78" r="17"/>
    <circle cx="315" cy="78" r="6"/>
    <path d="M18 70 L34 68" stroke-width="5"/>
  </g>
  <!-- wordmark -->
  <text x="14" y="122" font-family="'Sora','Arial Black',sans-serif" font-weight="800" font-size="42" letter-spacing="1" fill="url(#or)">GO CAR</text>
  <text x="16" y="140" font-family="'Inter',Arial,sans-serif" font-weight="600" font-size="12.5" letter-spacing="0.5" fill="#c8912e">Achat &amp; Vente de Voitures d'Occasion</text>
</svg>
