<svg xmlns="http://www.w3.org/2000/svg" viewBox="0 0 480 220" role="img" aria-label="GO CAR — Achat & Vente de Voitures d'Occasion">
  <defs>
    <linearGradient id="gcgrad" x1="0" y1="0" x2="0" y2="1">
      <stop offset="0" stop-color="#ffe9a8"/><stop offset="0.35" stop-color="#e7c06a"/><stop offset="0.55" stop-color="#d9a441"/><stop offset="0.8" stop-color="#a9781f"/><stop offset="1" stop-color="#7a5416"/>
    </linearGradient>
  </defs>
  <path fill="none" stroke="url(#gcgrad)" stroke-width="6" stroke-linecap="round" d="M6 96 C22 90 40 89 58 92"/>
  <path fill="none" stroke="url(#gcgrad)" stroke-width="4" stroke-linecap="round" d="M12 108 C26 104 42 103 58 105" opacity="0.8"/>
  <path fill="url(#gcgrad)" d="M24 112 C24 104 30 98 46 96 C70 92 96 86 128 84 L176 82 C196 54 244 44 300 48 C344 51 372 62 396 84 L452 90 C470 92 478 100 478 112 L400 112 A34 34 0 0 0 332 112 L168 112 A34 34 0 0 0 100 112 Z"/>
  <path fill="#0e0c09" d="M190 80 C206 58 244 50 292 53 C316 55 336 62 350 74 L214 78 Z"/>
  <g><circle cx="134" cy="112" r="32" fill="url(#gcgrad)"/><circle cx="134" cy="112" r="16" fill="#0e0c09"/><circle cx="134" cy="112" r="5.5" fill="url(#gcgrad)"/>
   <g stroke="#e7c06a" stroke-width="2.4"><path d="M134 112 L134 98M134 112 L147 119M134 112 L121 119M134 112 L146 105M134 112 L122 105"/></g></g>
  <g><circle cx="366" cy="112" r="32" fill="url(#gcgrad)"/><circle cx="366" cy="112" r="16" fill="#0e0c09"/><circle cx="366" cy="112" r="5.5" fill="url(#gcgrad)"/>
   <g stroke="#e7c06a" stroke-width="2.4"><path d="M366 112 L366 98M366 112 L379 119M366 112 L353 119M366 112 L378 105M366 112 L354 105"/></g></g>
  <text x="240" y="182" text-anchor="middle" font-family="'Sora','Arial Black',sans-serif" font-weight="800" font-size="54" letter-spacing="1" fill="url(#gcgrad)">GO CAR</text>
  <text x="240" y="206" text-anchor="middle" font-family="'Inter',Arial,sans-serif" font-weight="600" font-size="13" letter-spacing="0.5" fill="#c8912e">Achat &amp; Vente de Voitures d'Occasion</text>
</svg>
