<svg xmlns="http://www.w3.org/2000/svg" viewBox="0 0 420 210" role="img" aria-label="GO CAR — Achat & Vente de Voitures d'Occasion">
  <defs>
    <linearGradient id="gcgrad" x1="0" y1="0" x2="0" y2="1">
      <stop offset="0" stop-color="#f6d78a"/><stop offset="0.5" stop-color="#d9a441"/><stop offset="1" stop-color="#8f6420"/>
    </linearGradient>
  </defs>
  <!-- silhouette coupé -->
  <path fill="url(#gcgrad)" d="M38 102 C38 88 50 80 76 78 L150 74 C170 48 214 40 264 44 C298 47 320 59 338 78 L388 82 C406 84 414 91 414 102 L346 102 A31 31 0 0 0 284 102 L150 102 A31 31 0 0 0 88 102 Z"/>
  <path fill="#0e0c09" d="M162 72 C178 54 212 47 252 50 C270 52 284 58 296 68 L200 71 Z"/>
  <circle cx="119" cy="102" r="27" fill="url(#gcgrad)"/><circle cx="119" cy="102" r="12.5" fill="#0e0c09"/><circle cx="119" cy="102" r="4.6" fill="url(#gcgrad)"/>
  <circle cx="315" cy="102" r="27" fill="url(#gcgrad)"/><circle cx="315" cy="102" r="12.5" fill="#0e0c09"/><circle cx="315" cy="102" r="4.6" fill="url(#gcgrad)"/>
  <!-- wordmark -->
  <text x="210" y="168" text-anchor="middle" font-family="'Sora','Arial Black',sans-serif" font-weight="800" font-size="52" letter-spacing="1" fill="url(#gcgrad)">GO CAR</text>
  <text x="210" y="192" text-anchor="middle" font-family="'Inter',Arial,sans-serif" font-weight="600" font-size="13" letter-spacing="0.5" fill="#c8912e">Achat &amp; Vente de Voitures d'Occasion</text>
</svg>
